<svg width="159" height="33" viewBox="0 0 159 33" fill="none" xmlns="http://www.w3.org/2000/svg">
<path d="M11.5125 25.6511C10.5525 26.6537 8.99518 27.1551 6.84052 27.1551C4.68585 27.1551 3.12852 26.6537 2.16852 25.6511C1.20852 24.6484 0.728516 23.0697 0.728516 20.9151V9.84306C0.728516 7.70973 1.21918 6.14173 2.20052 5.13906C3.18185 4.11506 4.72852 3.60306 6.84052 3.60306C8.95252 3.60306 10.4992 4.11506 11.4805 5.13906C12.4619 6.14173 12.9525 7.70973 12.9525 9.84306V11.8271H9.62452V9.84306C9.62452 8.69106 9.40052 7.85906 8.95252 7.34706C8.52585 6.81373 7.82185 6.54706 6.84052 6.54706C5.85918 6.54706 5.14452 6.81373 4.69652 7.34706C4.26985 7.85906 4.05652 8.69106 4.05652 9.84306V20.9151C4.05652 22.0457 4.26985 22.8777 4.69652 23.4111C5.14452 23.9444 5.85918 24.2111 6.84052 24.2111C7.82185 24.2111 8.52585 23.9444 8.95252 23.4111C9.40052 22.8777 9.62452 22.0457 9.62452 20.9151V18.7711H12.9525V20.9151C12.9525 23.0697 12.4725 24.6484 11.5125 25.6511Z" fill="black"/>
<path d="M16.044 32.0191V9.61906H18.604L18.732 11.0591H18.86C19.6493 9.88573 20.7907 9.29906 22.284 9.29906C23.5213 9.29906 24.5133 9.7044 25.26 10.5151C26.0067 11.3044 26.38 12.4031 26.38 13.8111V22.3871C26.38 23.7951 26.0067 24.9044 25.26 25.7151C24.5133 26.5044 23.5213 26.8991 22.284 26.8991C20.94 26.8991 19.9267 26.4297 19.244 25.4911H19.116V32.0191H16.044ZM21.228 24.4671C22.6147 24.4671 23.308 23.7737 23.308 22.3871V13.8111C23.308 12.4244 22.6147 11.7311 21.228 11.7311C20.588 11.7311 20.076 11.9231 19.692 12.3071C19.308 12.6911 19.116 13.2137 19.116 13.8751V22.3231C19.116 22.9631 19.308 23.4857 19.692 23.8911C20.076 24.2751 20.588 24.4671 21.228 24.4671Z" fill="black"/>
<path d="M39.4938 22.1311C39.4938 25.3097 37.7764 26.8991 34.3418 26.8991C30.9071 26.8991 29.1898 25.3097 29.1898 22.1311V14.0671C29.1898 10.8884 30.9071 9.29906 34.3418 9.29906C37.7764 9.29906 39.4938 10.8884 39.4938 14.0671V18.5471H32.2618V22.1311C32.2618 23.5177 32.9551 24.2111 34.3418 24.2111C35.7284 24.2111 36.4218 23.5177 36.4218 22.1311V21.0111H39.4938V22.1311ZM32.2618 16.1151H36.4218V14.0671C36.4218 12.6804 35.7284 11.9871 34.3418 11.9871C32.9551 11.9871 32.2618 12.6804 32.2618 14.0671V16.1151Z" fill="black"/>
<path d="M41.4828 30.0991V23.8911H43.0188C43.7228 21.8644 44.0641 18.3231 44.0428 13.2671L44.0108 9.61906H53.4508V23.8911H55.5948V30.0991H53.0348V26.5791H44.0428V30.0991H41.4828ZM46.1228 23.8911H50.3788V12.3071H46.8588V16.4351C46.8588 19.5924 46.6134 22.0777 46.1228 23.8911Z" fill="black"/>
<path d="M57.9815 26.5791V9.61906H61.0535V16.5631H65.5975V9.61906H68.6695V26.5791H65.5975V19.2511H61.0535V26.5791H57.9815Z" fill="black"/>
<path d="M72.3878 26.5791V9.61906H75.4598V20.4991H75.5878L80.3238 9.61906H83.3958V26.5791H80.3238V15.6351H80.1958L75.4598 26.5791H72.3878Z" fill="black"/>
<path d="M87.1065 26.5791V9.61906H90.1785V20.4991H90.3065L95.0425 9.61906H98.1145V26.5791H95.0425V15.6351H94.9145L90.1785 26.5791H87.1065ZM92.9945 8.17906C91.4585 8.17906 90.2852 7.79506 89.4745 7.02706C88.6638 6.23773 88.2585 5.14973 88.2585 3.76306H91.2025C91.2025 5.2564 91.7999 6.00306 92.9945 6.00306C94.1892 6.00306 94.7865 5.2564 94.7865 3.76306H97.7305C97.7305 5.14973 97.3145 6.23773 96.4825 7.02706C95.6718 7.79506 94.5092 8.17906 92.9945 8.17906Z" fill="black"/>
<path d="M117.999 22.1311C117.999 25.3097 116.282 26.8991 112.847 26.8991C109.412 26.8991 107.695 25.3097 107.695 22.1311V10.0671C107.695 6.73906 109.316 5.07506 112.559 5.07506H114.223C114.778 5.07506 115.055 4.78706 115.055 4.21106V3.53906H117.999V5.07506C117.999 7.03773 116.954 8.01906 114.863 8.01906H112.559C111.194 8.01906 110.511 8.70173 110.511 10.0671V12.2431H110.639C111.343 11.3471 112.335 10.8991 113.615 10.8991C114.98 10.8991 116.047 11.3044 116.815 12.1151C117.604 12.9044 117.999 14.0031 117.999 15.4111V22.1311ZM110.767 22.1311C110.767 23.5177 111.46 24.2111 112.847 24.2111C114.234 24.2111 114.927 23.5177 114.927 22.1311V15.4111C114.927 14.7497 114.735 14.2377 114.351 13.8751C113.967 13.5124 113.444 13.3311 112.783 13.3311C111.439 13.3311 110.767 14.0244 110.767 15.4111V22.1311Z" fill="black"/>
<path d="M124.563 26.8991C123.325 26.8991 122.333 26.4724 121.587 25.6191C120.84 24.7657 120.467 23.5604 120.467 22.0031C120.467 19.2511 121.768 17.5871 124.371 17.0111L127.763 16.3071V14.0671C127.763 12.6804 127.08 11.9871 125.715 11.9871C124.349 11.9871 123.667 12.6804 123.667 14.0671V15.1871H120.595V14.0671C120.595 10.8884 122.301 9.29906 125.715 9.29906C129.128 9.29906 130.835 10.8884 130.835 14.0671V26.5791H128.275L128.147 25.1391H128.019C127.208 26.3124 126.056 26.8991 124.563 26.8991ZM125.619 24.4671C126.301 24.4671 126.824 24.2751 127.187 23.8911C127.571 23.5071 127.763 22.9844 127.763 22.3231V18.8991L125.715 19.3471C124.264 19.6671 123.539 20.5524 123.539 22.0031C123.539 23.6457 124.232 24.4671 125.619 24.4671Z" fill="black"/>
<path d="M134.294 26.8991C133.867 26.8991 133.441 26.8564 133.014 26.7711V23.7951H133.302C133.963 23.7951 134.443 23.6031 134.742 23.2191C135.062 22.8137 135.307 21.8644 135.478 20.3711C135.649 18.8777 135.723 16.5951 135.702 13.5231L135.67 9.61906H144.662V26.5791H141.59V12.3071H138.518V16.6911C138.518 19.4004 138.337 21.5231 137.974 23.0591C137.611 24.5951 137.142 25.6191 136.566 26.1311C135.99 26.6431 135.233 26.8991 134.294 26.8991Z" fill="black"/>
<path d="M148.388 26.8991C147.961 26.8991 147.534 26.8564 147.108 26.7711V23.7951H147.396C148.057 23.7951 148.537 23.6031 148.836 23.2191C149.156 22.8137 149.401 21.8644 149.572 20.3711C149.742 18.8777 149.817 16.5951 149.796 13.5231L149.764 9.61906H158.756V26.5791H155.684V12.3071H152.612V16.6911C152.612 19.4004 152.43 21.5231 152.068 23.0591C151.705 24.5951 151.236 25.6191 150.66 26.1311C150.084 26.6431 149.326 26.8991 148.388 26.8991Z" fill="black"/>
</svg>
